<?xml version="1.0" standalone="no"?>
<!DOCTYPE svg PUBLIC "-//W3C//DTD SVG 20010904//EN"
 "http://www.w3.org/TR/2001/REC-SVG-20010904/DTD/svg10.dtd">
<svg version="1.0" xmlns="http://www.w3.org/2000/svg"
 width="512.000000pt" height="512.000000pt" viewBox="0 0 512.000000 512.000000"
 preserveAspectRatio="xMidYMid meet">
<metadata>
Created by potrace 1.14, written by Peter Selinger 2001-2017
</metadata>
<g transform="translate(0.000000,512.000000) scale(0.100000,-0.100000)"
fill="#000000" stroke="none">
<path d="M2070 5089 c-134 -22 -268 -104 -367 -222 -31 -36 -93 -154 -86 -161
4 -3 2 -6 -4 -6 -5 0 -10 -6 -10 -12 -1 -7 -6 -28 -11 -45 -7 -23 -7 -33 0
-33 6 0 7 -5 2 -12 -5 -7 -9 -334 -9 -725 0 -444 -4 -713 -10 -713 -6 0 -6 -3
0 -9 6 -6 9 -54 7 -108 l-3 -99 -212 -2 c-600 -8 -652 -12 -663 -57 -7 -27 22
-91 59 -133 108 -122 925 -942 938 -942 5 0 9 -4 9 -9 0 -5 39 -47 88 -94 48
-47 183 -181 301 -297 117 -115 217 -210 222 -210 5 0 9 -7 9 -15 0 -8 3 -15
8 -15 4 0 27 -18 52 -40 94 -83 171 -101 257 -59 74 36 93 53 471 426 158 156
291 283 295 283 5 0 5 5 2 10 -3 6 1 10 10 10 9 0 14 4 11 9 -4 5 -2 11 4 13
18 6 746 738 893 897 26 28 47 55 47 60 0 4 9 16 20 26 11 10 17 22 14 26 -3
5 -1 9 4 9 15 0 2 47 -18 65 -29 26 -8 25 -730 39 -150 4 -141 2 -131 29 5 14
5 30 0 40 -6 9 -6 17 -2 17 7 0 7 211 0 328 -1 23 2 42 8 42 7 0 7 3 0 8 -6 4
-10 227 -11 627 -1 615 -1 621 -23 663 -12 23 -19 42 -16 42 4 0 -3 14 -15 30
-12 17 -18 30 -13 30 4 0 3 4 -2 8 -6 4 -23 25 -40 47 -81 111 -207 194 -354
232 -36 9 -946 12 -1001 2z"/>
<path d="M13 1363 c-6 -16 4 -872 11 -902 26 -114 104 -238 201 -319 47 -39
65 -51 135 -88 87 -46 11 -44 2212 -44 l2067 0 73 26 c167 61 299 191 365 361
l26 68 5 455 4 455 -193 0 -194 -1 -2 -279 c-3 -403 -6 -505 -15 -549 -11 -51
-52 -103 -102 -128 -38 -20 -60 -21 -306 -24 -370 -4 -3158 -4 -3480 0 -285 4
-300 6 -352 59 -50 50 -60 82 -64 201 -2 61 -4 111 -4 111 0 0 -2 137 -3 305
l-2 305 -189 0 c-138 0 -190 -3 -193 -12z"/>
</g>
</svg>
