<svg id="Layer_1" data-name="Layer 1" xmlns="http://www.w3.org/2000/svg" viewBox="0 0 350.92 53.66"><defs><style>.cls-1{fill:#fff;stroke:#fff;stroke-miterlimit:10;}</style></defs><path class="cls-1" d="M355.38,457.22a19.45,19.45,0,0,1,16.11,7.94,28.59,28.59,0,0,1,5.2,17.25,29.11,29.11,0,0,1-5.44,17.25,19.62,19.62,0,0,1-16.12,7.93H340V457.23h15.35Zm-13.83,48.85h13.58A18,18,0,0,0,370,498.74a27.75,27.75,0,0,0,5.13-16.34,27.27,27.27,0,0,0-4.89-16.33,17.82,17.82,0,0,0-14.9-7.32H341.55Z" transform="translate(-339.53 -455.57)"/><path class="cls-1" d="M409.07,463.8a27.11,27.11,0,0,1,0,37.21,24.52,24.52,0,0,1-35.74,0,27.11,27.11,0,0,1,0-37.21,24.52,24.52,0,0,1,35.74,0Zm-34.65,1.05a25.62,25.62,0,0,0,0,35.11A23,23,0,0,0,408,500a25.59,25.59,0,0,0,0-35.11,23,23,0,0,0-33.55,0Z" transform="translate(-339.53 -455.57)"/><path class="cls-1" d="M418.64,457.23l22.21,47.06,11.24-23.82-11-23.24h1.69l10.12,21.46,10.13-21.46h1.68l-11,23.24L465,504.29l22.21-47.06h1.68L465,507.86l-12.09-25.61-12.08,25.61L417,457.23Z" transform="translate(-339.53 -455.57)"/><path class="cls-1" d="M495.17,457.23c0,4.44,2.34,8.82,5.92,13.15s8.45,8.59,13.33,12.75a161.43,161.43,0,0,1,13.48,12.25,29.91,29.91,0,0,1,4.77,6.51V457.23h1.53v50.36h-1.53c0-3.52-2.29-7.27-5.89-11.18a160.11,160.11,0,0,0-13.35-12.12c-4.88-4.17-9.79-8.46-13.51-12.94a31.7,31.7,0,0,1-4.75-7.4v43.63h-1.52V457.23Z" transform="translate(-339.53 -455.57)"/><path class="cls-1" d="M585.8,457.23v1.52H563.28v48.83h-1.53V458.75H539.22v-1.52Z" transform="translate(-339.53 -455.57)"/><path class="cls-1" d="M620.26,507.58H618.6l-4.71-10.74c-6.68-.07-10.61-2.34-14.38-4.5s-7.24-4.16-13.54-4.3l-8.57,19.54h-1.66L598,456.84Zm-33.63-21c6.24.28,10,2.42,13.63,4.47s7,4.09,13,4.29L598,460.63Z" transform="translate(-339.53 -455.57)"/><path class="cls-1" d="M625.3,457.23h11.38c5.41,0,9.55,1.41,12.34,3.87A13.82,13.82,0,0,1,649,481c-2.8,2.42-6.92,3.76-12.27,3.76H625.3v22.87h-1.52V457.23Zm0,25.95h11.38c5.1,0,8.83-1.26,11.28-3.38a12.34,12.34,0,0,0,.06-17.56c-2.45-2.15-6.19-3.49-11.34-3.49H625.3Z" transform="translate(-339.53 -455.57)"/><path class="cls-1" d="M659.75,457.23h28.43v1.52H659.75v22.89h26.17v1.53H659.75v22.9H690v1.52H658.22V483.17h0v-1.53h0V458.75h0v-1.52h1.53Z" transform="translate(-339.53 -455.57)"/></svg>